<svg width="571" height="168" viewBox="0 0 571 168" fill="none" xmlns="http://www.w3.org/2000/svg">
<g clip-path="url(#clip0_85_2)">
<mask id="mask0_85_2" style="mask-type:luminance" maskUnits="userSpaceOnUse" x="0" y="0" width="571" height="168">
<path d="M571 0H0V168H571V0Z" fill="white"/>
</mask>
<g mask="url(#mask0_85_2)">
<path fill-rule="evenodd" clip-rule="evenodd" d="M85.089 99.343V79.769L94.916 89.557L85.089 99.343Z" fill="white" fill-opacity="0.02"/>
<path fill-rule="evenodd" clip-rule="evenodd" d="M116.912 168H85.658V115.861L116.912 84.7361V168Z" fill="#F5C949" fill-opacity="0.7"/>
<path fill-rule="evenodd" clip-rule="evenodd" d="M159.455 168H128.201V80.341L159.455 49.217V168Z" fill="#F5C949" fill-opacity="0.9"/>
<path fill-rule="evenodd" clip-rule="evenodd" d="M202 168H170.746V31.123L202 0V168Z" fill="#F5C949"/>
<path fill-rule="evenodd" clip-rule="evenodd" d="M74.367 127.105V168H33.301L74.367 127.105Z" fill="white" fill-opacity="0.4"/>
<path fill-rule="evenodd" clip-rule="evenodd" d="M130.037 0L101 28.917L71.963 0H130.037Z" fill="white" fill-opacity="0.5"/>
<path fill-rule="evenodd" clip-rule="evenodd" d="M130.037 0L101 28.917L71.963 0H130.037Z" fill="#F5C949"/>
<path fill-rule="evenodd" clip-rule="evenodd" d="M42.545 140.47V43.0081L73.799 74.1321V109.346L42.545 140.47Z" fill="#F5C949" fill-opacity="0.9"/>
<path fill-rule="evenodd" clip-rule="evenodd" d="M85.089 99.343V79.769L94.916 89.557L85.089 99.343Z" fill="#F5C949" fill-opacity="0.7"/>
<path fill-rule="evenodd" clip-rule="evenodd" d="M21.134 168H0V0L31.254 31.123V157.923L21.134 168Z" fill="#F5C949"/>
<path fill-rule="evenodd" clip-rule="evenodd" d="M74.367 127.105V168H33.301L74.367 127.105Z" fill="#F5C949" fill-opacity="0.9"/>
<path d="M275.4 66.3C275.667 65.7667 276.167 65.5 276.9 65.5H288.5C288.833 65.5 289.1 65.6333 289.3 65.9C289.567 66.1 289.7 66.3667 289.7 66.7V134.3C289.7 134.633 289.567 134.933 289.3 135.2C289.1 135.4 288.833 135.5 288.5 135.5H276.8C276.467 135.5 276.167 135.4 275.9 135.2C275.7 134.933 275.6 134.633 275.6 134.3V89.4C275.6 89.1333 275.533 89 275.4 89C275.267 89 275.133 89.1 275 89.3L267.2 103.1C266.867 103.633 266.6 103.9 266.4 103.9C266.2 103.9 265.933 103.633 265.6 103.1L257.8 89.3C257.667 89.1 257.533 89 257.4 89C257.267 89 257.2 89.1333 257.2 89.4V134.3C257.2 134.633 257.067 134.933 256.8 135.2C256.6 135.4 256.333 135.5 256 135.5H244.3C243.967 135.5 243.667 135.4 243.4 135.2C243.2 134.933 243.1 134.633 243.1 134.3V66.7C243.1 66.3667 243.2 66.1 243.4 65.9C243.667 65.6333 243.967 65.5 244.3 65.5H255.8C256.467 65.5 256.967 65.7667 257.3 66.3L266.2 82.2C266.4 82.4667 266.6 82.4667 266.8 82.2L275.4 66.3ZM304.685 78.3C302.418 78.3 300.518 77.5667 298.985 76.1C297.518 74.5667 296.785 72.6667 296.785 70.4C296.785 68.0667 297.518 66.1667 298.985 64.7C300.452 63.2333 302.352 62.5 304.685 62.5C307.018 62.5 308.885 63.2333 310.285 64.7C311.752 66.1667 312.485 68.0667 312.485 70.4C312.485 72.6667 311.752 74.5667 310.285 76.1C308.818 77.5667 306.952 78.3 304.685 78.3ZM298.985 135.5C298.652 135.5 298.352 135.4 298.085 135.2C297.885 134.933 297.785 134.633 297.785 134.3V85.3C297.785 84.9667 297.885 84.7 298.085 84.5C298.352 84.2333 298.652 84.1 298.985 84.1H310.685C311.018 84.1 311.285 84.2333 311.485 84.5C311.752 84.7 311.885 84.9667 311.885 85.3V134.3C311.885 134.633 311.752 134.933 311.485 135.2C311.285 135.4 311.018 135.5 310.685 135.5H298.985ZM318.26 135.5C317.793 135.5 317.46 135.4 317.26 135.2C317.127 134.933 317.16 134.567 317.36 134.1L328.76 110.1C328.827 109.9 328.827 109.7 328.76 109.5L317.36 85.5C317.227 85.2333 317.16 85.0333 317.16 84.9C317.16 84.3667 317.527 84.1 318.26 84.1H331.06C331.727 84.1 332.193 84.4 332.46 85L337.36 96.3C337.56 96.7 337.76 96.7 337.96 96.3L342.86 85C343.127 84.4 343.593 84.1 344.26 84.1H356.96C357.427 84.1 357.727 84.2333 357.86 84.5C358.06 84.7 358.06 85.0333 357.86 85.5L346.46 109.5C346.393 109.7 346.393 109.9 346.46 110.1L357.86 134.1C357.993 134.367 358.06 134.567 358.06 134.7C358.06 135.233 357.693 135.5 356.96 135.5H344.26C343.527 135.5 343.06 135.2 342.86 134.6L337.96 122.9C337.76 122.367 337.56 122.367 337.36 122.9L332.46 134.6C332.26 135.2 331.793 135.5 331.06 135.5H318.26ZM380.508 136.2C374.841 136.2 370.308 134.867 366.908 132.2C363.574 129.467 361.908 125.833 361.908 121.3V120.6C361.908 120.267 362.008 120 362.208 119.8C362.474 119.533 362.774 119.4 363.108 119.4H374.108C374.441 119.4 374.708 119.533 374.908 119.8C375.174 120 375.308 120.267 375.308 120.6V120.9C375.308 122.3 375.808 123.467 376.808 124.4C377.808 125.267 379.041 125.7 380.508 125.7C381.841 125.7 382.874 125.333 383.608 124.6C384.408 123.8 384.808 122.8 384.808 121.6C384.808 120.133 384.174 119 382.908 118.2C381.641 117.333 380.208 116.633 378.608 116.1C377.074 115.5 376.008 115.1 375.408 114.9C371.741 113.567 368.641 111.733 366.108 109.4C363.641 107 362.408 103.567 362.408 99.1C362.408 94.2333 364.008 90.4 367.208 87.6C370.408 84.8 374.674 83.4 380.008 83.4C385.541 83.4 389.908 84.8667 393.108 87.8C396.374 90.7333 398.008 94.7 398.008 99.7C398.008 100.033 397.874 100.333 397.608 100.6C397.408 100.8 397.141 100.9 396.808 100.9H386.108C385.774 100.9 385.474 100.8 385.208 100.6C385.008 100.333 384.908 100.033 384.908 99.7V98.9C384.908 97.5667 384.474 96.5 383.608 95.7C382.808 94.8333 381.741 94.4 380.408 94.4C379.008 94.4 377.908 94.8667 377.108 95.8C376.308 96.6667 375.908 97.7 375.908 98.9C375.908 100.5 376.574 101.767 377.908 102.7C379.308 103.567 381.408 104.533 384.208 105.6C387.074 106.667 389.508 107.767 391.508 108.9C393.574 109.967 395.341 111.533 396.808 113.6C398.274 115.6 399.008 118.133 399.008 121.2C399.008 125.8 397.308 129.467 393.908 132.2C390.574 134.867 386.108 136.2 380.508 136.2ZM427.919 92.8C427.919 93.1333 427.785 93.4333 427.519 93.7C427.319 93.9 427.052 94 426.719 94H421.119C420.785 94 420.619 94.1667 420.619 94.5V118.3C420.619 120.233 420.985 121.567 421.719 122.3C422.452 123.033 423.552 123.367 425.019 123.3H425.719C426.052 123.3 426.319 123.433 426.519 123.7C426.785 123.9 426.919 124.167 426.919 124.5V134.3C426.919 134.633 426.785 134.933 426.519 135.2C426.319 135.4 426.052 135.5 425.719 135.5H421.719C416.852 135.5 413.185 134.7 410.719 133.1C408.252 131.433 407.019 128.3 407.019 123.7V94.5C407.019 94.1667 406.852 94 406.519 94H403.219C402.885 94 402.585 93.9 402.319 93.7C402.119 93.4333 402.019 93.1333 402.019 92.8V85.3C402.019 84.9667 402.119 84.7 402.319 84.5C402.585 84.2333 402.885 84.1 403.219 84.1H406.519C406.852 84.1 407.019 83.9333 407.019 83.6V72.5C407.019 72.1667 407.119 71.9 407.319 71.7C407.585 71.4333 407.885 71.3 408.219 71.3H419.419C419.752 71.3 420.019 71.4333 420.219 71.7C420.485 71.9 420.619 72.1667 420.619 72.5V83.6C420.619 83.9333 420.785 84.1 421.119 84.1H426.719C427.052 84.1 427.319 84.2333 427.519 84.5C427.785 84.7 427.919 84.9667 427.919 85.3V92.8ZM451.92 136.3C445.987 136.3 441.32 134.8 437.92 131.8C434.587 128.8 432.92 124.7 432.92 119.5V100.1C432.92 95.0333 434.62 90.9667 438.02 87.9C441.42 84.8333 446.054 83.3 451.92 83.3C457.854 83.3 462.52 84.8333 465.92 87.9C469.32 90.9667 471.02 95.0333 471.02 100.1V119.5C471.02 124.7 469.32 128.8 465.92 131.8C462.587 134.8 457.92 136.3 451.92 136.3ZM451.92 124.1C453.387 124.1 454.587 123.567 455.52 122.5C456.454 121.433 456.92 120.067 456.92 118.4V101.1C456.92 99.4333 456.454 98.0667 455.52 97C454.587 95.9333 453.387 95.4 451.92 95.4C450.454 95.4 449.254 95.9333 448.32 97C447.454 98.0667 447.02 99.4333 447.02 101.1V118.4C447.02 120.067 447.454 121.433 448.32 122.5C449.254 123.567 450.454 124.1 451.92 124.1ZM500.859 83.5C502.659 83.5 504.059 83.8333 505.059 84.5C505.592 84.8333 505.792 85.3333 505.659 86L503.759 97.7C503.692 98.4333 503.225 98.7 502.359 98.5C501.625 98.2333 500.725 98.1 499.659 98.1C498.659 98.1 497.792 98.2333 497.059 98.5C495.525 98.7667 494.292 99.7 493.359 101.3C492.425 102.833 491.959 104.633 491.959 106.7V134.2C491.959 134.533 491.825 134.833 491.559 135.1C491.359 135.3 491.092 135.4 490.759 135.4H479.059C478.725 135.4 478.425 135.3 478.159 135.1C477.959 134.833 477.859 134.533 477.859 134.2V85.3C477.859 84.9667 477.959 84.7 478.159 84.5C478.425 84.2333 478.725 84.1 479.059 84.1H490.759C491.092 84.1 491.359 84.2333 491.559 84.5C491.825 84.7 491.959 84.9667 491.959 85.3V89.2C491.959 89.4667 491.992 89.6333 492.059 89.7C492.192 89.7 492.325 89.6 492.459 89.4C494.259 85.4667 497.059 83.5 500.859 83.5ZM546.697 113C546.697 113.333 546.564 113.633 546.297 113.9C546.097 114.1 545.83 114.2 545.497 114.2H523.497C523.164 114.2 522.997 114.367 522.997 114.7V118.4C522.997 120.067 523.43 121.467 524.297 122.6C525.23 123.667 526.397 124.2 527.797 124.2C529.064 124.2 530.097 123.8 530.897 123C531.697 122.133 532.23 121.067 532.497 119.8C532.697 119.133 533.13 118.8 533.797 118.8L545.297 119.4C545.63 119.4 545.897 119.533 546.097 119.8C546.364 120 546.464 120.3 546.397 120.7C545.93 125.833 544.13 129.733 540.997 132.4C537.93 135 533.53 136.3 527.797 136.3C521.864 136.3 517.23 134.833 513.897 131.9C510.564 128.9 508.897 124.767 508.897 119.5V100.1C508.897 95.0333 510.564 90.9667 513.897 87.9C517.297 84.8333 521.93 83.3 527.797 83.3C533.664 83.3 538.264 84.8333 541.597 87.9C544.997 90.9667 546.697 95.0333 546.697 100.1V113ZM527.797 95.4C526.397 95.4 525.23 95.9333 524.297 97C523.43 98.0667 522.997 99.4333 522.997 101.1V105C522.997 105.333 523.164 105.5 523.497 105.5H532.097C532.43 105.5 532.597 105.333 532.597 105V101.1C532.597 99.4333 532.13 98.0667 531.197 97C530.33 95.9333 529.197 95.4 527.797 95.4Z" fill="white"/>
</g>
</g>
<defs>
<clipPath id="clip0_85_2">
<rect width="571" height="168" fill="white"/>
</clipPath>
</defs>
</svg>
